<svg width="62" height="59" fill="none" xmlns="http://www.w3.org/2000/svg"><path fill-rule="evenodd" clip-rule="evenodd" d="M61.586 28.656c0 .657-.095 1.266-.281 1.828a5.031 5.031 0 01-.844 1.547 4.76 4.76 0 01-1.266 1.125c-.47.281-.984.516-1.547.703.282.47.515.963.703 1.477.187.516.282 1.103.282 1.758 0 .562-.095 1.124-.282 1.687a7.829 7.829 0 01-.703 1.547 9.415 9.415 0 01-1.265 1.055c-.47.33-.939.586-1.407.773.282.47.515.984.704 1.547.186.563.28 1.125.28 1.688 0 .656-.094 1.243-.28 1.757a8.609 8.609 0 01-.703 1.477 6.07 6.07 0 01-1.266 1.195 3.7 3.7 0 01-1.547.633c.373.47.655.962.844 1.476.187.517.281 1.103.281 1.758 0 .657-.14 1.314-.422 1.97a5.314 5.314 0 01-1.125 1.687 7.377 7.377 0 01-1.828 1.125 5.302 5.302 0 01-2.11.422H29.243c-.657 0-1.406-.093-2.25-.282a17.146 17.146 0 01-2.672-.843 22.728 22.728 0 01-2.812-1.055 74.904 74.904 0 00-2.813-1.196 201.798 201.798 0 01-3.305-1.406c-1.078-.468-1.852-.703-2.32-.703H.273V25.984l1.125-.14h10.97c.843 0 1.616-.093 2.32-.282.702-.186 1.428-.562 2.18-1.125.843-.468 1.803-1.125 2.882-1.968a287.047 287.047 0 003.867-3.094c2.905-2.437 4.617-5.485 5.133-9.14.514-3.657.773-5.766.773-6.329 0-.563.141-1.1.422-1.617a3.078 3.078 0 011.125-1.195c.468-.374.96-.633 1.477-.774a5.589 5.589 0 011.476-.21c.75 0 1.499.094 2.25.28.75.19 1.453.611 2.11 1.266.655.657 1.17 1.525 1.547 2.602.373 1.079.562 2.509.562 4.289a28.82 28.82 0 01-.351 4.57 36.232 36.232 0 01-.914 4.148 23.066 23.066 0 01-1.055 3.586 221.405 221.405 0 00-1.055 2.743h19.125c.844 0 1.569.118 2.18.351A6.297 6.297 0 0160.18 25a4.64 4.64 0 011.054 1.617c.233.61.352 1.29.352 2.04zm-5.344 2.953c.468 0 .89-.07 1.266-.21.373-.141.655-.352.843-.634.282-.28.515-.584.704-.913.186-.328.28-.726.28-1.196 0-.75-.28-1.406-.843-1.968-.562-.563-1.314-.845-2.25-.845h-8.437c0 .095 0 .095 0 0H33.32l.844-1.687c2.624-6.469 3.938-11.672 3.938-15.61 0-3.093-.517-4.897-1.547-5.413-1.033-.515-1.877-.774-2.532-.774-.28 0-.703.14-1.265.422-.563.281-.844.657-.844 1.125 0 .563-.048 1.5-.14 2.813-.095 1.314-.376 2.812-.844 4.5-.47 1.687-1.15 3.423-2.04 5.203-.892 1.782-2.133 3.329-3.726 4.64a3114.841 3114.841 0 00-4.008 3.305c-1.079.892-2.087 1.617-3.023 2.18-.938.562-1.877.984-2.813 1.265a10.2 10.2 0 01-2.953.422H2.664v22.782H13.07c.655 0 1.523.21 2.602.632 1.076.422 2.412.963 4.008 1.617.749.376 1.569.774 2.46 1.196.89.422 1.758.773 2.602 1.054.936.282 1.78.541 2.531.774.75.235 1.407.352 1.97.352h18.562c.468 0 .89-.093 1.265-.282a3.78 3.78 0 00.985-.703c.28-.187.492-.468.632-.844.141-.373.211-.749.211-1.125 0-.468-.07-.865-.21-1.195a2.929 2.929 0 00-.633-.914 2.748 2.748 0 00-.985-.633 3.588 3.588 0 00-1.265-.21h-.282v-2.391h3.235c.373 0 .749-.07 1.125-.211.373-.141.703-.352.984-.633.187-.281.374-.609.563-.984.186-.374.28-.75.28-1.125 0-.374-.094-.75-.28-1.125a9.714 9.714 0 00-.563-.985 9.703 9.703 0 00-.984-.562 2.515 2.515 0 00-1.125-.282h-.985v-2.39h3.516c.373 0 .75-.07 1.125-.211.374-.14.703-.352.984-.633a3.78 3.78 0 00.704-.985 2.5 2.5 0 00.28-1.124c0-.468-.094-.89-.28-1.266-.19-.374-.422-.655-.704-.844a3.813 3.813 0 00-.984-.703A2.515 2.515 0 0053.289 34h-1.125v-2.39h4.078z" fill="#00A2FF"/></svg>