<svg width="58" height="57" fill="none" xmlns="http://www.w3.org/2000/svg"><path fill-rule="evenodd" clip-rule="evenodd" d="M57.266 53.812l-2.954 2.954L38 40.453a18.61 18.61 0 01-3.094 2.25 24.16 24.16 0 01-3.515 1.688c-1.22.47-2.51.821-3.868 1.054-1.36.235-2.696.352-4.007.352-3.189 0-6.166-.609-8.93-1.828-2.767-1.218-5.181-2.859-7.242-4.922-2.064-2.061-3.68-4.476-4.852-7.242C1.32 29.04.734 26.109.734 23.015c0-3.186.585-6.163 1.758-8.93 1.171-2.763 2.788-5.178 4.852-7.241 2.06-2.061 4.475-3.679 7.242-4.852C17.35.821 20.327.234 23.516.234c3.093 0 6.022.587 8.789 1.758 2.764 1.173 5.179 2.79 7.242 4.852 2.06 2.063 3.702 4.478 4.922 7.242 1.217 2.766 1.828 5.743 1.828 8.93 0 1.313-.119 2.65-.352 4.007a20.475 20.475 0 01-1.054 3.867 24.491 24.491 0 01-1.688 3.516 18.664 18.664 0 01-2.25 3.094l16.313 16.312zM3.125 23.016c0 2.812.514 5.438 1.547 7.874a20.132 20.132 0 004.36 6.47 20.88 20.88 0 006.538 4.429c2.483 1.079 5.133 1.617 7.946 1.617 2.812 0 5.436-.538 7.875-1.617a21.163 21.163 0 006.468-4.43 21.19 21.19 0 004.43-6.469c1.077-2.436 1.617-5.062 1.617-7.875 0-2.812-.54-5.46-1.617-7.945a21.008 21.008 0 00-4.43-6.539 20.252 20.252 0 00-6.468-4.36c-2.44-1.03-5.063-1.546-7.875-1.546-2.813 0-5.463.516-7.946 1.547a20.007 20.007 0 00-6.539 4.36 19.985 19.985 0 00-4.36 6.538c-1.032 2.485-1.546 5.133-1.546 7.945z" fill="#5474FD"/></svg>