<svg width="777" height="96" fill="none" xmlns="http://www.w3.org/2000/svg"><g opacity=".5"><mask id="path-1-inside-1_0_46" fill="#fff"><path fill-rule="evenodd" clip-rule="evenodd" d="M0 96s192.477-212.458 393.059 0c0 0 176.268-213.754 383.941 0"/></mask><path fill-rule="evenodd" clip-rule="evenodd" d="M0 96s192.477-212.458 393.059 0c0 0 176.268-213.754 383.941 0" fill="#000" fill-opacity=".01"/><path d="M393.059 96l-.727.686.777.824.721-.874-.771-.636zM0 96c.741.671.741.67.743.67l.006-.007.025-.028a136.646 136.646 0 012.155-2.274 234.184 234.184 0 016.423-6.352c5.636-5.375 13.913-12.823 24.473-21.1 21.125-16.555 51.36-36.41 87.827-49.641 36.461-13.23 79.131-19.833 125.16-9.921 46.024 9.91 95.49 36.348 145.52 89.34l1.454-1.374C343.524 42.075 293.712 15.4 247.233 5.391c-46.474-10.007-89.532-3.33-126.263 9.997-36.725 13.325-67.146 33.307-88.378 49.948-10.619 8.322-18.945 15.813-24.62 21.226a236.077 236.077 0 00-6.48 6.407 139.3 139.3 0 00-2.087 2.2l-.108.118-.028.03a.857.857 0 01-.007.008c-.002.002-.003.003.738.675zm393.059 0c.771.636.772.635.773.634l.005-.006.023-.028.093-.112a129.859 129.859 0 011.884-2.174 214.344 214.344 0 015.922-6.388c5.205-5.407 12.877-12.897 22.732-21.222 19.714-16.652 48.141-36.62 83.018-49.928C542.377 3.472 583.68-3.17 629.183 6.8s95.291 36.572 147.1 89.897l1.434-1.393c-52.028-53.551-102.15-80.388-148.106-90.457-45.954-10.07-87.657-3.353-122.815 10.062-35.15 13.412-63.77 33.522-83.596 50.269-9.915 8.375-17.637 15.914-22.882 21.362a215.269 215.269 0 00-5.977 6.449 130.432 130.432 0 00-1.92 2.215 10.46 10.46 0 00-.099.118l-.025.031-.007.008c-.002.002-.003.004.769.64z" fill="#fff" mask="url(#path-1-inside-1_0_46)"/></g></svg>