<svg width="14" height="14" fill="none" xmlns="http://www.w3.org/2000/svg"><path d="M13.855 7.286A6.859 6.859 0 006.998.429a6.859 6.859 0 00-2.75 13.142c-.018-.482-.01-1.062.116-1.58 0 0 .134-.553.884-3.732-.223-.438-.223-1.09-.223-1.09 0-1.017.589-1.776 1.321-1.776.625 0 .929.473.929 1.036 0 .625-.402 1.562-.608 2.428-.17.732.366 1.322 1.08 1.322 1.304 0 2.18-1.67 2.18-3.643 0-1.51-1.019-2.634-2.858-2.634-2.08 0-3.375 1.553-3.375 3.285 0 .599.179 1.018.456 1.349.125.152.142.205.098.384-.036.125-.107.428-.143.544-.045.179-.188.241-.34.179-.955-.393-1.401-1.447-1.401-2.625 0-1.947 1.643-4.286 4.893-4.286 2.625 0 4.348 1.902 4.348 3.929 0 2.696-1.5 4.705-3.705 4.705-.742 0-1.438-.402-1.67-.857-.402 1.58-.482 1.884-.482 1.884-.143.527-.438 1.053-.697 1.464a6.71 6.71 0 001.947.286 6.859 6.859 0 006.857-6.857z"/></svg>