<svg width="15" height="12" fill="none" xmlns="http://www.w3.org/2000/svg"><path d="M14.535 1.929a5.783 5.783 0 01-1.661.446 2.876 2.876 0 001.268-1.59 5.676 5.676 0 01-1.83.697 2.877 2.877 0 00-2.108-.91A2.883 2.883 0 007.32 3.454c0 .224.027.447.072.661a8.197 8.197 0 01-5.947-3.018 2.882 2.882 0 00.893 3.857 2.905 2.905 0 01-1.303-.366v.036c0 1.402.99 2.563 2.312 2.83-.241.063-.5.099-.759.099-.187 0-.366-.018-.544-.045a2.889 2.889 0 002.696 2 5.776 5.776 0 01-3.58 1.232c-.241 0-.465-.009-.697-.036A8.15 8.15 0 004.892 12c5.303 0 8.205-4.393 8.205-8.205 0-.125 0-.25-.009-.375a6.2 6.2 0 001.447-1.491z"/></svg>