<svg width="17" height="12" fill="none" xmlns="http://www.w3.org/2000/svg"><path d="M6.848 8.357v-4.49l4.322 2.258-4.322 2.232zM8.5.661c-3.366 0-5.598.16-5.598.16-.313.036-1 .036-1.607.679 0 0-.491.482-.634 1.59C.49 4.383.5 5.678.5 5.678v1.214s-.009 1.295.16 2.59c.144 1.097.635 1.588.635 1.588.607.634 1.41.617 1.768.679 0 0 1.276.125 5.437.16 3.366 0 5.598-.169 5.598-.169.313-.036 1-.036 1.607-.67 0 0 .491-.49.634-1.589.17-1.294.161-2.59.161-2.59V5.68s.009-1.295-.16-2.59c-.144-1.107-.635-1.589-.635-1.589-.607-.643-1.294-.643-1.607-.679 0 0-2.232-.16-5.598-.16z"/></svg>