<svg xmlns="http://www.w3.org/2000/svg" width="45" height="41"><path d="M9.645 17.938c-1.133 0-2.207.183-3.215.472v-.473c0-2.828 2.883-5.125 6.425-5.125 1.778 0 3.215-1.148 3.215-2.562s-1.433-2.563-3.215-2.563C5.77 7.688 0 12.285 0 17.938v7.688c0 4.246 4.316 7.688 9.645 7.688 5.324 0 9.64-3.442 9.64-7.688 0-4.246-4.32-7.688-9.64-7.688zm25.71 0c-1.132 0-2.203.183-3.21.472v-.473c0-2.828 2.882-5.125 6.425-5.125 1.778 0 3.215-1.148 3.215-2.562s-1.437-2.563-3.215-2.563c-7.09 0-12.855 4.598-12.855 10.25v7.688c0 4.246 4.316 7.688 9.64 7.688 5.329 0 9.645-3.442 9.645-7.688 0-4.246-4.32-7.688-9.645-7.688zm0 0" fill="#5474fd" id="surface1"/></svg>