<svg width="20" height="22" fill="none" xmlns="http://www.w3.org/2000/svg"><path fill-rule="evenodd" clip-rule="evenodd" d="M19.993 19.98l-1.044 1.047-5.767-5.784a6.59 6.59 0 01-1.094.798 8.52 8.52 0 01-1.243.598 7.122 7.122 0 01-1.367.374 8.29 8.29 0 01-1.417.125 7.716 7.716 0 01-3.157-.648 8.319 8.319 0 01-2.56-1.745 8 8 0 01-1.715-2.568 7.912 7.912 0 01-.622-3.116 8.041 8.041 0 012.337-5.734A7.998 7.998 0 018.06.984c1.094 0 2.13.208 3.107.623.978.416 1.831.99 2.56 1.72a8.387 8.387 0 011.74 2.568c.431.98.647 2.036.647 3.166 0 .466-.042.94-.124 1.42a7.27 7.27 0 01-.373 1.372 8.705 8.705 0 01-.597 1.246 6.604 6.604 0 01-.795 1.097l5.767 5.784zM.853 9.06a7.1 7.1 0 002.087 5.086 7.385 7.385 0 002.312 1.57 6.958 6.958 0 002.809.574c.994 0 1.922-.19 2.784-.573a7.483 7.483 0 002.287-1.57 7.518 7.518 0 001.566-2.294 6.86 6.86 0 00.572-2.792 7.02 7.02 0 00-.572-2.817 7.449 7.449 0 00-1.566-2.318 7.158 7.158 0 00-2.287-1.546 7.06 7.06 0 00-2.784-.548 7.24 7.24 0 00-2.809.548 7.087 7.087 0 00-3.853 3.864 7.283 7.283 0 00-.547 2.817z" fill="#fff"/></svg>